<?xml version="1.0" standalone="no"?>
<!DOCTYPE svg PUBLIC "-//W3C//DTD SVG 20010904//EN"
 "http://www.w3.org/TR/2001/REC-SVG-20010904/DTD/svg10.dtd">
<svg version="1.0" xmlns="http://www.w3.org/2000/svg"
 width="62.000000pt" height="70.000000pt" viewBox="0 0 62.000000 70.000000"
 preserveAspectRatio="xMidYMid meet">
<metadata>
Created by potrace 1.16, written by Peter Selinger 2001-2019
</metadata>
<g transform="translate(0.000000,70.000000) scale(0.100000,-0.100000)"
fill="#000000" stroke="none">
<path d="M67 554 c-12 -12 -8 -241 5 -292 32 -133 166 -221 290 -192 51 13 60
28 28 48 -29 18 -80 112 -80 149 0 116 -56 220 -140 263 -42 21 -93 33 -103
24z"/>
<path d="M423 400 c-26 -11 -53 -59 -53 -95 0 -58 81 -173 114 -162 18 6 55
67 67 111 29 106 -38 182 -128 146z"/>
</g>
</svg>
